<svg width="18" height="21" viewBox="0 0 18 21" fill="none" xmlns="http://www.w3.org/2000/svg">
<path d="M15.875 3C16.8906 3 17.75 3.85938 17.75 4.875V18.625C17.75 19.6797 16.8906 20.5 15.875 20.5H2.125C1.07031 20.5 0.25 19.6797 0.25 18.625V4.875C0.25 3.85938 1.07031 3 2.125 3H4V0.96875C4 0.734375 4.19531 0.5 4.46875 0.5H4.78125C5.01562 0.5 5.25 0.734375 5.25 0.96875V3H12.75V0.96875C12.75 0.734375 12.9453 0.5 13.2188 0.5H13.5312C13.7656 0.5 14 0.734375 14 0.96875V3H15.875ZM2.125 4.25C1.77344 4.25 1.5 4.5625 1.5 4.875V6.75H16.5V4.875C16.5 4.5625 16.1875 4.25 15.875 4.25H2.125ZM15.875 19.25C16.1875 19.25 16.5 18.9766 16.5 18.625V8H1.5V18.625C1.5 18.9766 1.77344 19.25 2.125 19.25H15.875ZM6.03125 13H4.46875C4.19531 13 4 12.8047 4 12.5312V10.9688C4 10.7344 4.19531 10.5 4.46875 10.5H6.03125C6.26562 10.5 6.5 10.7344 6.5 10.9688V12.5312C6.5 12.8047 6.26562 13 6.03125 13ZM9.78125 13H8.21875C7.94531 13 7.75 12.8047 7.75 12.5312V10.9688C7.75 10.7344 7.94531 10.5 8.21875 10.5H9.78125C10.0156 10.5 10.25 10.7344 10.25 10.9688V12.5312C10.25 12.8047 10.0156 13 9.78125 13ZM13.5312 13H11.9688C11.6953 13 11.5 12.8047 11.5 12.5312V10.9688C11.5 10.7344 11.6953 10.5 11.9688 10.5H13.5312C13.7656 10.5 14 10.7344 14 10.9688V12.5312C14 12.8047 13.7656 13 13.5312 13ZM9.78125 16.75H8.21875C7.94531 16.75 7.75 16.5547 7.75 16.2812V14.7188C7.75 14.4844 7.94531 14.25 8.21875 14.25H9.78125C10.0156 14.25 10.25 14.4844 10.25 14.7188V16.2812C10.25 16.5547 10.0156 16.75 9.78125 16.75ZM6.03125 16.75H4.46875C4.19531 16.75 4 16.5547 4 16.2812V14.7188C4 14.4844 4.19531 14.25 4.46875 14.25H6.03125C6.26562 14.25 6.5 14.4844 6.5 14.7188V16.2812C6.5 16.5547 6.26562 16.75 6.03125 16.75ZM13.5312 16.75H11.9688C11.6953 16.75 11.5 16.5547 11.5 16.2812V14.7188C11.5 14.4844 11.6953 14.25 11.9688 14.25H13.5312C13.7656 14.25 14 14.4844 14 14.7188V16.2812C14 16.5547 13.7656 16.75 13.5312 16.75Z" fill="#57595C"/>
</svg>
