<svg width="22" height="22" viewBox="0 0 22 22" fill="none" xmlns="http://www.w3.org/2000/svg">
<path d="M20.3359 11.1641C21.5078 12.2969 21 14.25 19.3984 14.6406L18.5391 14.875L18.7734 15.7734C19.2031 17.3359 17.7578 18.7422 16.2344 18.3125L15.3359 18.0781L15.1016 18.9375C14.7109 20.5391 12.7188 21.0469 11.625 19.875L11 19.25L10.3359 19.875C9.24219 21.0469 7.25 20.5391 6.85938 18.9375L6.625 18.0781L5.72656 18.3125C4.20312 18.7422 2.75781 17.3359 3.1875 15.7734L3.42188 14.875L2.5625 14.6406C0.960938 14.25 0.453125 12.2969 1.625 11.1641L2.25 10.5L1.625 9.875C0.453125 8.74219 0.960938 6.78906 2.5625 6.39844L3.42188 6.16406L3.1875 5.26562C2.75781 3.70312 4.20312 2.29688 5.72656 2.72656L6.625 2.96094L6.85938 2.0625C7.25 0.5 9.24219 -0.0078125 10.3359 1.16406L11 1.78906L11.625 1.16406C12.7188 -0.0078125 14.7109 0.539062 15.1016 2.0625L15.3359 2.96094L16.2344 2.72656C17.7578 2.29688 19.2031 3.70312 18.7734 5.26562L18.5391 6.16406L19.3984 6.39844C21 6.78906 21.5078 8.74219 20.3359 9.875L19.7109 10.5L20.3359 11.1641ZM19.125 13.4297C19.7109 13.2734 19.9453 12.4922 19.4766 12.0625L17.9141 10.5L19.4766 8.97656C19.9453 8.54688 19.7109 7.76562 19.125 7.60938L16.9766 7.0625L17.5625 4.91406C17.7578 4.32812 17.1719 3.74219 16.5469 3.9375L14.4375 4.52344L13.8906 2.375C13.7344 1.78906 12.9531 1.55469 12.5234 2.02344L11 3.58594L9.4375 2.02344C9.00781 1.55469 8.22656 1.75 8.07031 2.375L7.52344 4.52344L5.41406 3.9375C4.78906 3.74219 4.20312 4.32812 4.39844 4.91406L4.98438 7.0625L2.83594 7.60938C2.25 7.76562 2.01562 8.54688 2.48438 8.97656L4.04688 10.5L2.48438 12.0625C2.01562 12.4922 2.25 13.2734 2.83594 13.4297L4.98438 13.9766L4.39844 16.0859C4.20312 16.7109 4.78906 17.2969 5.41406 17.1016L7.52344 16.5156L8.07031 18.6641C8.22656 19.2891 9.00781 19.4844 9.4375 19.0156L11 17.4531L12.5234 19.0156C12.9531 19.4844 13.7344 19.2891 13.8906 18.6641L14.4375 16.5156L16.5469 17.1016C17.1719 17.2969 17.7578 16.7109 17.5625 16.0859L16.9766 13.9766L19.125 13.4297Z" fill="#57595C"/>
</svg>
