<svg width="29" height="19" viewBox="0 0 29 19" fill="none" xmlns="http://www.w3.org/2000/svg">
<path d="M11.3281 8.69727C12.3698 8.99023 13.151 9.52734 13.6719 10.3086C14.2253 11.0573 14.502 11.985 14.502 13.0918C14.502 14.752 13.8672 16.0215 12.5977 16.9004C11.5234 17.7142 10.1237 18.1211 8.39844 18.1211H0V0.787109H8.1543C9.84701 0.787109 11.1491 1.08008 12.0605 1.66602C13.1348 2.34961 13.6719 3.50521 13.6719 5.13281C13.6719 6.76042 12.8906 7.94857 11.3281 8.69727ZM3.80859 3.76562V7.81836H7.66602C8.38216 7.81836 8.93555 7.6556 9.32617 7.33008C9.74935 6.97201 9.96094 6.4349 9.96094 5.71875C9.96094 4.41667 9.09831 3.76562 7.37305 3.76562H3.80859ZM7.86133 15.1914C9.74935 15.1914 10.6934 14.4264 10.6934 12.8965C10.6934 11.2363 9.7819 10.4062 7.95898 10.4062H3.80859V15.1914H7.86133ZM25.3906 3.42383V1.71484H18.3594V3.42383H25.3906ZM28.125 12.0176L28.0762 12.6523H19.043C19.043 13.694 19.3034 14.4915 19.8242 15.0449C20.3776 15.5983 21.1426 15.875 22.1191 15.875C22.7051 15.875 23.2585 15.7285 23.7793 15.4355C24.3327 15.1426 24.6908 14.7357 24.8535 14.2148H27.8809C26.9694 17.0143 25.0163 18.4141 22.0215 18.4141C20.0684 18.4141 18.5059 17.8118 17.334 16.6074C16.1947 15.403 15.625 13.8242 15.625 11.8711C15.625 10.6341 15.8854 9.51107 16.4062 8.50195C16.9596 7.49284 17.7246 6.69531 18.7012 6.10938C19.6777 5.52344 20.7845 5.23047 22.0215 5.23047C23.9095 5.23047 25.4232 5.89779 26.5625 7.23242C27.6042 8.50195 28.125 10.097 28.125 12.0176ZM19.043 10.5039H24.6582C24.5931 9.65755 24.3327 9.00651 23.877 8.55078C23.4212 8.0625 22.7702 7.81836 21.9238 7.81836C21.11 7.81836 20.4427 8.0625 19.9219 8.55078C19.401 9.03906 19.1081 9.6901 19.043 10.5039Z" fill="#0A0E1A"/>
</svg>
